<svg width="103" height="79" viewBox="0 0 103 79" fill="none" xmlns="http://www.w3.org/2000/svg">
<path d="M59.8791 6.2832H53.8271C57.182 8.29282 59.5073 11.8392 59.8353 15.9499C59.8501 15.9497 59.8643 15.9477 59.8791 15.9477C62.0415 15.9477 63.7944 17.7007 63.7944 19.8631C63.7944 22.0255 62.0415 23.7785 59.8791 23.7785V33.443C67.379 33.443 73.459 27.363 73.459 19.8631C73.4587 12.363 67.379 6.2832 59.8791 6.2832Z" fill="#1F9EF3"/>
<path d="M51.502 50.546H56.5404V45.502C55.26 47.5373 53.5355 49.2632 51.502 50.546Z" fill="#494454"/>
<path d="M45.6567 6.42578V23.664C44.7853 23.4886 43.8839 23.3954 42.9608 23.3954C35.4609 23.3954 29.3809 29.4754 29.3809 36.9753C29.3809 44.4752 35.4609 50.5552 42.9608 50.5552C50.4607 50.5552 56.5407 44.4752 56.5407 36.9753V17.3097C56.5407 11.2987 51.6677 6.42578 45.6567 6.42578ZM42.9608 40.8905C40.7983 40.8905 39.0454 39.1375 39.0454 36.9751C39.0454 34.8126 40.7983 33.0597 42.9608 33.0597C45.1232 33.0597 46.8762 34.8126 46.8762 36.9751C46.8762 39.1375 45.1232 40.8905 42.9608 40.8905Z" fill="#494454"/>
<path d="M5.258 66.14C5.41933 66.1693 5.61733 66.1987 5.852 66.228C6.08667 66.2427 6.30667 66.25 6.512 66.25C7.01067 66.25 7.46533 66.1767 7.876 66.03C8.30133 65.8833 8.66067 65.656 8.954 65.348C9.262 65.04 9.49667 64.644 9.658 64.16C9.834 63.6613 9.922 63.0673 9.922 62.378C9.922 61.058 9.614 60.068 8.998 59.408C8.382 58.7333 7.56067 58.396 6.534 58.396C6.32867 58.396 6.116 58.4033 5.896 58.418C5.69067 58.4327 5.478 58.4547 5.258 58.484V66.14ZM6.49 69.352C6.24067 69.352 5.95467 69.3447 5.632 69.33C5.30933 69.3153 4.972 69.286 4.62 69.242C4.28267 69.198 3.938 69.1393 3.586 69.066C3.24867 69.0073 2.93333 68.9193 2.64 68.802C1.83333 68.494 1.43 67.9587 1.43 67.196V56.922C1.43 56.614 1.51067 56.3793 1.672 56.218C1.848 56.042 2.08267 55.9027 2.376 55.8C3.00667 55.5947 3.674 55.4627 4.378 55.404C5.082 55.3307 5.71267 55.294 6.27 55.294C7.414 55.294 8.448 55.4333 9.372 55.712C10.3107 55.9907 11.11 56.4233 11.77 57.01C12.4447 57.582 12.9653 58.308 13.332 59.188C13.6987 60.068 13.882 61.1093 13.882 62.312C13.882 63.4853 13.706 64.512 13.354 65.392C13.002 66.2573 12.496 66.9907 11.836 67.592C11.1907 68.1787 10.4133 68.6187 9.504 68.912C8.59467 69.2053 7.59 69.352 6.49 69.352ZM21.4503 69.352C20.585 69.352 19.7783 69.2347 19.0303 69C18.297 68.7507 17.6517 68.384 17.0943 67.9C16.5517 67.416 16.119 66.8073 15.7963 66.074C15.4883 65.3407 15.3343 64.4827 15.3343 63.5C15.3343 62.532 15.4883 61.7033 15.7963 61.014C16.119 60.31 16.537 59.738 17.0503 59.298C17.5637 58.8433 18.1503 58.5133 18.8103 58.308C19.4703 58.088 20.145 57.978 20.8343 57.978C21.6117 57.978 22.3157 58.0953 22.9463 58.33C23.5917 58.5647 24.1417 58.8873 24.5963 59.298C25.0657 59.7087 25.425 60.2 25.6743 60.772C25.9383 61.344 26.0703 61.9673 26.0703 62.642C26.0703 63.1407 25.931 63.522 25.6523 63.786C25.3737 64.05 24.985 64.2187 24.4863 64.292L19.0523 65.106C19.2137 65.59 19.5437 65.9567 20.0423 66.206C20.541 66.4407 21.113 66.558 21.7583 66.558C22.3597 66.558 22.9243 66.4847 23.4523 66.338C23.995 66.1767 24.435 65.9933 24.7723 65.788C25.007 65.9347 25.205 66.14 25.3663 66.404C25.5277 66.668 25.6083 66.9467 25.6083 67.24C25.6083 67.9 25.3003 68.3913 24.6843 68.714C24.215 68.9633 23.687 69.132 23.1003 69.22C22.5137 69.308 21.9637 69.352 21.4503 69.352ZM20.8343 60.706C20.4823 60.706 20.1743 60.7647 19.9103 60.882C19.661 60.9993 19.4557 61.1533 19.2943 61.344C19.133 61.52 19.0083 61.7253 18.9203 61.96C18.847 62.18 18.803 62.4073 18.7883 62.642L22.5503 62.026C22.5063 61.7327 22.345 61.4393 22.0663 61.146C21.7877 60.8527 21.377 60.706 20.8343 60.706ZM36.8906 65.81C36.8906 66.9247 36.4726 67.7973 35.6366 68.428C34.8006 69.0587 33.5686 69.374 31.9406 69.374C31.3246 69.374 30.7526 69.33 30.2246 69.242C29.6966 69.154 29.2419 69.022 28.8606 68.846C28.4939 68.6553 28.2006 68.4207 27.9806 68.142C27.7752 67.8633 27.6726 67.5333 27.6726 67.152C27.6726 66.8 27.7459 66.5067 27.8926 66.272C28.0392 66.0227 28.2152 65.8173 28.4206 65.656C28.8459 65.8907 29.3299 66.1033 29.8726 66.294C30.4299 66.47 31.0679 66.558 31.7866 66.558C32.2412 66.558 32.5859 66.492 32.8206 66.36C33.0699 66.228 33.1946 66.052 33.1946 65.832C33.1946 65.6267 33.1066 65.4653 32.9306 65.348C32.7546 65.2307 32.4612 65.1353 32.0506 65.062L31.3906 64.93C30.1146 64.6807 29.1612 64.292 28.5306 63.764C27.9146 63.2213 27.6066 62.4513 27.6066 61.454C27.6066 60.9113 27.7239 60.42 27.9586 59.98C28.1932 59.54 28.5232 59.1733 28.9486 58.88C29.3739 58.5867 29.8799 58.3593 30.4666 58.198C31.0679 58.0367 31.7279 57.956 32.4466 57.956C32.9892 57.956 33.4952 58 33.9646 58.088C34.4486 58.1613 34.8666 58.2787 35.2186 58.44C35.5706 58.6013 35.8492 58.814 36.0546 59.078C36.2599 59.3273 36.3626 59.628 36.3626 59.98C36.3626 60.3173 36.2966 60.6107 36.1646 60.86C36.0472 61.0947 35.8932 61.2927 35.7026 61.454C35.5852 61.3807 35.4092 61.3073 35.1746 61.234C34.9399 61.146 34.6832 61.0727 34.4046 61.014C34.1259 60.9407 33.8399 60.882 33.5466 60.838C33.2679 60.794 33.0112 60.772 32.7766 60.772C32.2926 60.772 31.9186 60.8307 31.6546 60.948C31.3906 61.0507 31.2586 61.2193 31.2586 61.454C31.2586 61.6153 31.3319 61.7473 31.4786 61.85C31.6252 61.9527 31.9039 62.048 32.3146 62.136L32.9966 62.29C34.4046 62.6127 35.4019 63.06 35.9886 63.632C36.5899 64.1893 36.8906 64.9153 36.8906 65.81ZM49.1487 67.064C49.0754 67.7533 48.87 68.2813 48.5327 68.648C48.21 69.0147 47.7334 69.198 47.1027 69.198C46.6334 69.198 46.2154 69.088 45.8487 68.868C45.482 68.6333 45.086 68.2447 44.6607 67.702L42.4827 64.974V68.978C42.3214 69.0073 42.0794 69.044 41.7567 69.088C41.4487 69.1467 41.1334 69.176 40.8107 69.176C40.488 69.176 40.1947 69.154 39.9307 69.11C39.6814 69.066 39.4687 68.978 39.2927 68.846C39.1167 68.714 38.9774 68.538 38.8747 68.318C38.7867 68.0833 38.7427 67.7827 38.7427 67.416V54.678C38.904 54.634 39.1387 54.59 39.4467 54.546C39.7694 54.4873 40.092 54.458 40.4147 54.458C40.7374 54.458 41.0234 54.48 41.2727 54.524C41.5367 54.568 41.7567 54.656 41.9327 54.788C42.1087 54.92 42.2407 55.1033 42.3287 55.338C42.4314 55.558 42.4827 55.8513 42.4827 56.218V62.026L46.2667 58.154C47.0294 58.154 47.638 58.3227 48.0927 58.66C48.562 58.9973 48.7967 59.4227 48.7967 59.936C48.7967 60.156 48.76 60.3613 48.6867 60.552C48.6134 60.728 48.496 60.9113 48.3347 61.102C48.188 61.2927 47.99 61.498 47.7407 61.718C47.506 61.9233 47.2274 62.1653 46.9047 62.444L45.6287 63.544L49.1487 67.064Z" fill="#494454"/>
<path d="M60.5861 61.85C61.2021 61.85 61.6714 61.7107 61.9941 61.432C62.3314 61.1387 62.5001 60.6987 62.5001 60.112C62.5001 59.5547 62.3241 59.1293 61.9721 58.836C61.6348 58.528 61.1361 58.374 60.4761 58.374C60.2414 58.374 60.0434 58.3813 59.8821 58.396C59.7354 58.396 59.5814 58.4107 59.4201 58.44V61.85H60.5861ZM59.4421 68.912C59.2808 68.956 59.0241 69 58.6721 69.044C58.3348 69.088 57.9974 69.11 57.6601 69.11C57.3228 69.11 57.0221 69.0807 56.7581 69.022C56.5088 68.978 56.2961 68.89 56.1201 68.758C55.9441 68.626 55.8121 68.4427 55.7241 68.208C55.6361 67.9733 55.5921 67.6653 55.5921 67.284V56.922C55.5921 56.614 55.6728 56.3793 55.8341 56.218C56.0101 56.042 56.2448 55.9027 56.5381 55.8C57.0368 55.624 57.6014 55.4993 58.2321 55.426C58.8774 55.338 59.5228 55.294 60.1681 55.294C62.1921 55.294 63.7394 55.7267 64.8101 56.592C65.8808 57.4573 66.4161 58.6307 66.4161 60.112C66.4161 60.8307 66.2988 61.4833 66.0641 62.07C65.8441 62.642 65.5068 63.1407 65.0521 63.566C64.6121 63.9767 64.0474 64.2993 63.3581 64.534C62.6834 64.754 61.8988 64.864 61.0041 64.864H59.4421V68.912ZM67.7865 55.338C67.7865 54.7807 67.9698 54.3113 68.3365 53.93C68.7178 53.5487 69.2165 53.358 69.8325 53.358C70.4485 53.358 70.9398 53.5487 71.3065 53.93C71.6878 54.3113 71.8785 54.7807 71.8785 55.338C71.8785 55.8953 71.6878 56.3647 71.3065 56.746C70.9398 57.1273 70.4485 57.318 69.8325 57.318C69.2165 57.318 68.7178 57.1273 68.3365 56.746C67.9698 56.3647 67.7865 55.8953 67.7865 55.338ZM71.7025 68.978C71.5411 69.0073 71.2991 69.044 70.9765 69.088C70.6685 69.1467 70.3531 69.176 70.0305 69.176C69.7078 69.176 69.4145 69.154 69.1505 69.11C68.9011 69.066 68.6885 68.978 68.5125 68.846C68.3365 68.714 68.1971 68.538 68.0945 68.318C68.0065 68.0833 67.9625 67.7827 67.9625 67.416V58.462C68.1238 58.4327 68.3585 58.396 68.6665 58.352C68.9891 58.2933 69.3118 58.264 69.6345 58.264C69.9571 58.264 70.2431 58.286 70.4925 58.33C70.7565 58.374 70.9765 58.462 71.1525 58.594C71.3285 58.726 71.4605 58.9093 71.5485 59.144C71.6511 59.364 71.7025 59.6573 71.7025 60.024V68.978ZM77.8895 68.978C77.7281 69.0073 77.4861 69.044 77.1635 69.088C76.8555 69.1467 76.5401 69.176 76.2175 69.176C75.8948 69.176 75.6015 69.154 75.3375 69.11C75.0881 69.066 74.8755 68.978 74.6995 68.846C74.5235 68.714 74.3841 68.538 74.2815 68.318C74.1935 68.0833 74.1495 67.7827 74.1495 67.416V54.656C74.3108 54.6267 74.5455 54.59 74.8535 54.546C75.1761 54.4873 75.4988 54.458 75.8215 54.458C76.1441 54.458 76.4301 54.48 76.6795 54.524C76.9435 54.568 77.1635 54.656 77.3395 54.788C77.5155 54.92 77.6475 55.1033 77.7355 55.338C77.8381 55.558 77.8895 55.8513 77.8895 56.218V68.978ZM91.3155 63.654C91.3155 64.5633 91.1761 65.3773 90.8975 66.096C90.6188 66.8 90.2228 67.394 89.7095 67.878C89.2108 68.362 88.6095 68.7287 87.9055 68.978C87.2015 69.2273 86.4168 69.352 85.5515 69.352C84.6861 69.352 83.9015 69.22 83.1975 68.956C82.4935 68.692 81.8848 68.318 81.3715 67.834C80.8728 67.3353 80.4841 66.734 80.2055 66.03C79.9268 65.326 79.7875 64.534 79.7875 63.654C79.7875 62.7887 79.9268 62.004 80.2055 61.3C80.4841 60.596 80.8728 60.002 81.3715 59.518C81.8848 59.0193 82.4935 58.638 83.1975 58.374C83.9015 58.11 84.6861 57.978 85.5515 57.978C86.4168 57.978 87.2015 58.1173 87.9055 58.396C88.6095 58.66 89.2108 59.0413 89.7095 59.54C90.2228 60.024 90.6188 60.618 90.8975 61.322C91.1761 62.026 91.3155 62.8033 91.3155 63.654ZM83.6155 63.654C83.6155 64.5487 83.7841 65.238 84.1215 65.722C84.4735 66.1913 84.9575 66.426 85.5735 66.426C86.1895 66.426 86.6588 66.184 86.9815 65.7C87.3188 65.216 87.4875 64.534 87.4875 63.654C87.4875 62.774 87.3188 62.0993 86.9815 61.63C86.6441 61.146 86.1675 60.904 85.5515 60.904C84.9355 60.904 84.4588 61.146 84.1215 61.63C83.7841 62.0993 83.6155 62.774 83.6155 63.654ZM96.8801 65.326C96.8801 65.7073 96.9974 65.9787 97.2321 66.14C97.4814 66.3013 97.8261 66.382 98.2661 66.382C98.4861 66.382 98.7134 66.3673 98.9481 66.338C99.1828 66.294 99.3881 66.2427 99.5641 66.184C99.6961 66.3453 99.8061 66.5287 99.8941 66.734C99.9968 66.9247 100.048 67.1593 100.048 67.438C100.048 67.9953 99.8354 68.45 99.4101 68.802C98.9994 69.154 98.2661 69.33 97.2101 69.33C95.9194 69.33 94.9221 69.0367 94.2181 68.45C93.5288 67.8633 93.1841 66.91 93.1841 65.59V56.174C93.3454 56.13 93.5728 56.086 93.8661 56.042C94.1741 55.9833 94.4968 55.954 94.8341 55.954C95.4794 55.954 95.9781 56.0713 96.3301 56.306C96.6968 56.526 96.8801 57.0027 96.8801 57.736V59.144H99.7621C99.8501 59.3053 99.9308 59.5107 100.004 59.76C100.092 59.9947 100.136 60.2587 100.136 60.552C100.136 61.0653 100.019 61.4393 99.7841 61.674C99.5641 61.894 99.2634 62.004 98.8821 62.004H96.8801V65.326Z" fill="#1F9EF3"/>
</svg>
